<?xml version="1.0" encoding="utf-8" ?>
<svg baseProfile="full" height="300mm" version="1.1" viewBox="0,0,200,300" width="200mm" xmlns="http://www.w3.org/2000/svg" xmlns:ev="http://www.w3.org/2001/xml-events" xmlns:xlink="http://www.w3.org/1999/xlink"><defs /><rect fill="#222222" height="300" width="200" x="0" y="0" /><text fill="#FFFFFF" style="font-size:12px; font-family:Arial; font-weight:bold;" x="10" y="20">Over 10km Runs</text><text fill="#FFFFFF" style="font-size:4px; font-family:Arial" x="10" y="280">ATHLETE</text><text fill="#FFFFFF" style="font-size:9px; font-family:Arial" x="10" y="290">陈学新</text><text fill="#FFFFFF" style="font-size:4px; font-family:Arial" x="120" y="280">STATISTICS</text><text fill="#FFFFFF" style="font-size:3px; font-family:Arial" x="120" y="285">Number: 21</text><text fill="#FFFFFF" style="font-size:3px; font-family:Arial" x="120" y="290">Weekly: 2.6</text><text fill="#FFFFFF" style="font-size:3px; font-family:Arial" x="141" y="285">Total: 84.2 km</text><text fill="#FFFFFF" style="font-size:3px; font-family:Arial" x="141" y="290">Avg: 4.0 km</text><text fill="#FFFFFF" style="font-size:3px; font-family:Arial" x="167" y="285">Min: 1.0 km</text><text fill="#FFFFFF" style="font-size:3px; font-family:Arial" x="167" y="290">Max: 6.8 km</text><polyline fill="none" points="32.78260951419361,32.30317609247868 31.578704989748076,32.0 30.783673699828796,32.833733510255115 30.170363847748376,37.457122362800874 29.716060253675096,38.61927437369013 27.39911192341242,40.615133532177424 24.51428410038352,42.05517549076467 24.71872071782127,42.73729819484288 26.445074375602417,43.672056396026164 28.375864650821313,44.50575717736501 28.262288752244785,45.213137825368904 29.64791471452918,45.49103690526681 29.76149061298929,47.4615865671949 31.192546934704296,47.63843012912548 30.89724959852174,49.00264835736016 29.852351331850514,50.29107093747007 27.603548540733755,50.41738657627138 26.467789555317722,51.35212063556537 26.127061859704554,52.766847677266924 25.241169851156883,53.95420267843292 25.627327906200662,55.59628157064435 24.46885374095291,56.884675584500656 24.53699928021524,57.92043927399209 24.196271584485658,58.22358893978526 23.105942958500236,58.17306401688256 22.4926331063034,59.99195583164692 20.83442498766817,61.48242833200493 19.630520463222638,63.62970609081094 20.83442498766817,66.73691587208305 22.22005094983615,67.82316854491364 25.263885030755773,68.0 26.53593509446364,66.7621776072483 27.989706595777534,66.48429840290919 28.71659234643448,65.32225528120762 30.35208528547082,66.2064189389639 36.46246862702537,64.58966054511257 37.552797253010795,65.0191128506267 39.09742947318591,65.04437473163125 40.36947953689378,64.23599347504205 40.301333997631446,63.78127805268741 38.0979615659453,63.42761002131738 38.32511336309835,62.49291391423321 38.0525312066311,61.2298063999624 35.34942482132465,59.10777369997231 35.50843107921537,57.38992661537486 37.007632939959876,56.42994892288698 37.416506174835376,55.14155293896329 36.91677222121507,52.28685175674036 35.463000719901174,51.07422703295015 32.87347023305483,50.01317634337465 32.78260951419361,48.82580560675706 31.442413911456242,48.295276723918505" stroke="#4dd2ff" stroke-linecap="round" stroke-linejoin="round" stroke-width="0.5"><title>2020-12-29 4.1km</title></polyline><polyline fill="none" points="79.52677015296649,32.73216126137413 78.09671840979718,32.0 77.64273372944444,32.201975700620096 76.73476436873898,38.1601970976335 76.03108811413404,39.22054600849515 74.05625475442503,40.86155472006067 69.44831024878658,42.80550715883146 73.82926241436508,44.875676292111166 75.00962258328218,43.9668233267148 74.9642241152469,45.30485589284217 76.12188505008817,45.38059340507607 76.53047126252204,45.910755450313445 76.48507279448677,47.4759902554797 76.87095977272838,47.72844671001076 77.71083143155556,47.400253277330194 77.98322223965079,48.03139417228522 77.46113985730335,49.44514491275186 76.41697509249207,50.555944347492186 74.39674326474778,50.555944347492186 73.26178156386595,51.41428652140894 72.89859381958377,52.92900195697439 72.01332369295415,53.93880795824225 72.33111296908464,55.60498035873752 71.26424897019751,56.968205374781974 71.19615126820281,58.154710947186686 69.85689646110404,58.23044518454117 68.92622786632273,60.62868605431868 67.60967229329981,61.68895479620551 66.33851518831216,63.80948093291954 67.65507076133508,66.78828971495386 68.49494241992943,67.64658501039958 71.46854207641445,68.0 72.44460913923103,67.87378040910698 73.1709846277954,66.83877774211578 74.66913407307584,66.48536137188785 75.35011109360494,65.29888905558619 77.21144828305114,66.15718865185045 83.38563993608113,64.46583119488787 84.40710546693299,65.04644752622698 86.1549464862328,64.86973832806689 86.99481814494357,64.28912165158545 86.83592350699473,63.859969466080656 84.88378938136157,63.65801528200973 84.7248947431799,63.20361786618014 85.06538325338624,62.547264816908864 84.77029321121518,61.51224360181368 82.02368589502294,59.06352052238071 82.20527976704761,57.57408115253202 83.49913610622752,56.66526702270494 84.06661695672665,55.529245452198666 83.58993304229807,52.37360719364369 82.29607670323458,51.313305217860034 79.75376249314286,50.35398112269468 79.54946938704234,49.44514491275186 78.82309389836155,48.94023470606771 79.09548470657319,48.814007020380814 77.96052300569136,48.41007806584821 77.64273372944444,47.6274641539203 76.3715766244568,47.4759902554797 76.46237356041092,46.03698436927516 76.00838888005819,45.506822549243225 75.05502105131745,45.456330898043234 75.19121645542327,44.724200990982354" stroke="#4dd2ff" stroke-linecap="round" stroke-linejoin="round" stroke-width="0.5"><title>2020-12-30 4.7km</title></polyline><polyline fill="none" points="138.22409684211016,32.0 137.30645875493065,36.63924188143574 131.8006302304566,35.340256141498685 128.88087267940864,37.65987244993448 128.13007788127288,49.35066363669466 125.79427184024826,58.44341468811035 117.45210740994662,66.70105156826321 115.11630136938766,68.0 111.61259230878204,65.68044814513996 114.78261479223147,61.50524238892831 114.69919314794242,54.453747529303655 112.4468087516725,51.57746681384742 109.94415942253545,51.7630335399881 108.44256982486695,53.897048627375625 108.77625640202314,62.15471988823265 111.2789057311602,64.75262602325529 114.94945808080956,62.52584971487522 114.69919314794242,54.360964398714714 112.78049532882869,51.57746681384742 110.0275810668245,51.85581689141691 108.44256982486695,53.897048627375625 109.44362955633551,63.54645608633291 111.77943559689447,64.6598437676439 114.69919314794242,62.804197001387365 114.78261479223147,55.65992751007434 113.11418190598488,51.85581689141691 108.85967804631218,52.69086669920944 108.85967804631218,62.618632151628844 111.94627888547257,66.5154873803258 115.3665663022548,67.25774394255131 124.37610388733447,59.927938282024115 125.62742855167016,57.60836928000208 128.04665623651817,37.4743033265695 132.13431680761278,36.17531858047005 134.5535444924608,37.567087892093696" stroke="#4dd2ff" stroke-linecap="round" stroke-linejoin="round" stroke-width="0.5"><title>2020-12-31 2.4km</title></polyline><polyline fill="none" points="169.79069767449982,35.25672005175147 168.6046511628665,35.45071680028923 167.83720930211712,40.18421192059759 165.3255813953001,39.40823247714434 164.31395348836668,39.99021718330914 163.09302325570025,48.13792517851107 161.97674418590032,50.15543041433557 158.41860465100035,53.026480188651476 152.0,55.85871430547559 158.20930232538376,58.80732294067275 167.0,57.02264104119968 174.11627906968351,60.16522840913967 179.55813953489996,61.406738446763484 181.58139534876682,59.73845855417312 183.8488372093998,61.83350674263784 185.00000000011642,64.20012369053438 186.01162790704984,64.74327994824853 188.0,63.96734223960084 187.09302325593308,62.57065104160574 187.9651162790833,61.83350674263784 187.44186046510004,59.9712421609147 184.51162790704984,53.918829819507664 182.97674418601673,51.94013915376854 179.2093023256166,47.94393382058479 167.87209302315023,40.68859785160748" stroke="#4dd2ff" stroke-linecap="round" stroke-linejoin="round" stroke-width="0.5"><title>2021-01-01 3.0km</title></polyline><polyline fill="none" points="12.0,87.77307923469925 12.0,90.24254064666457 23.577092511113733,90.94809889156022 28.01762114535086,92.22692076532985 29.841409691609442,90.24254064666457 33.21145374444313,89.31649399443995 35.62995594716631,89.97795605746796 41.9735682818573,89.14010396841331 44.39207048458047,89.71337133340421 45.81938325986266,88.87551881722175 48.0,89.71337133340421" stroke="#4dd2ff" stroke-linecap="round" stroke-linejoin="round" stroke-width="0.5"><title>2021-01-01 1.0km</title></polyline><polyline fill="none" points="78.08018229331356,72.0 78.90002135699615,72.848948612198 78.73039948171936,74.10664667998208 77.31688385491725,76.37049243005458 74.8008260395145,78.00548352571786 74.57466353918426,79.73479317000601 76.15780104103032,80.01777034247061 76.4970447915839,80.8038169083884 76.24261197866872,82.37590503171668 78.05191198084503,82.47023010670091 77.8257494806312,84.32528503017966 76.66666666662786,85.67726835378562 73.38731041282881,86.21177202649415 72.19995728624053,87.2178944927582 71.94552447355818,88.91571995263803 70.6450900969794,90.80218355121906 71.2387666599825,92.59431506399415 69.85352134611458,94.04059030875214 69.7969807209447,95.83270614178036 67.95941040618345,95.89558724148083 67.337463530479,98.2536207701778 65.10410884034354,100.265797502856 63.74713383871131,102.87532291247044 65.5564338407712,106.83673596504377 66.772057279828,107.81136283729575 67.95941040618345,108.0 71.38011822290719,107.90568143068231 72.0586057236651,106.61665857426124 74.0375276011182,106.11362404678948 75.02698853972834,104.69883577365545 77.09072135470342,105.76778741262387 84.89332761405967,103.81852034150506 86.08068074053153,104.47875711187953 88.03133230528329,104.32155798765598 89.38830730691552,103.6927608230908 89.58619949477725,102.87532291247044 86.70262761623599,102.3408433025179 87.09841199184302,101.30332185668522 86.9005198039813,100.07715639879461 85.03467917663511,98.09641900227871" stroke="#4dd2ff" stroke-linecap="round" stroke-linejoin="round" stroke-width="0.5"><title>2021-01-03 3.0km</title></polyline><polyline fill="none" points="105.33333333325572,101.80817148773349 105.58483033929951,97.2528270893672 106.30339321354404,96.41367988751153 113.884231536882,96.49359873315552 116.72255488997325,97.49258315761108 117.65668662660755,96.93315214134054 119.56087824329734,98.05201350853895 121.06986027932726,98.25180990100489 129.2974051896017,94.81530012286385 132.92614770447835,91.33880537730874 134.25548902177252,82.94716044689994 136.4111776445061,82.34775150727364 138.85429141693749,82.86723929911386 139.82435129699297,78.39163334286422 141.33333333325572,78.59143808865338 141.22554890206084,78.19182851226651" stroke="#4dd2ff" stroke-linecap="round" stroke-linejoin="round" stroke-width="0.5"><title>2021-01-04 1.5km</title></polyline><polyline fill="none" points="188.0,87.57458326777851 187.35553705244092,87.62459275008587 186.3064113239525,86.65774049935862 185.87177352205617,88.14135665392678 152.02997502079234,91.1418943553872 152.0,93.1422273254575 152.50957535387715,93.34225950064138" stroke="#4dd2ff" stroke-linecap="round" stroke-linejoin="round" stroke-width="0.5"><title>2021-01-09 2.7km</title></polyline><polyline fill="none" points="34.15533456904814,114.8915475027461 33.025935942539945,113.30357020828524 31.640824419562705,114.0857094086241 24.949670292786323,114.6782376456249 24.75788562046364,115.43667195204762 24.054675154970028,116.12400126093416 19.64362768922001,115.67368224990787 19.26005834445823,115.223362511897 18.066731493803672,115.15225932883914 18.386372614419088,114.48862874673796 19.15351130417548,114.84414532643859 19.750174729386345,115.69738326864899 21.987662574392743,115.4840740278014 22.26468487898819,115.7921873232699 24.438244499848224,116.14770224131644 22.37123191927094,121.74107730184915 22.17944724683184,122.40469062852208 22.477778959437273,122.97350079476018 24.012056338833645,123.92151516082231 25.3758584538009,123.89781484095147 26.015140695148148,124.77472533562104 29.296789534389973,126.19673649422475 29.744287103414536,126.22043661877979 29.48857420682907,124.56142303656088 30.277022304479033,124.96432724225451 30.87368572980631,125.84123438413371 30.596663425210863,126.6470385165303 32.0030843563145,127.07363976197666 31.917846724158153,128.59043890648172 32.25879725289997,128.89853772491915 33.23903002310544,128.70893849228742 33.45212410343811,129.06443694781046 33.11117357481271,130.15462938635028 31.960465540294535,131.50551410633489 30.1491658561863,131.48181443073554 29.041076637804508,132.21650343685178 28.593579068779945,133.7806735856284 27.63465570670087,134.98934451225796 28.060843867715448,136.50610061938642 27.05930168949999,137.40667065657908 26.931445241207257,138.75752026186092 25.7594277986791,138.68642307730624 25.184073781361803,140.6060407020268 23.692415218101814,141.86207965420908 22.499088367447257,144.06605886705802 24.097293970989995,147.33644755286514 24.885742068639956,147.85781032274826 25.993831287138164,148.0 28.21000972390175,147.97630172548816 28.93452959752176,146.88617892217007 30.49011638504453,146.62549675136688 30.916304545942694,145.60646411022753 32.08832198858727,146.22262382644112 33.00462653452996,146.29371909075417 36.66984471853357,145.58276563245454 38.39590677036904,144.8718103627034 39.3548301323317,145.27468523796415 40.71863224741537,145.20358971401583 41.93326850607991,144.58742774755228 41.7627932416508,143.97126442054287 39.95149355765898,143.80537406148505 40.03673118993174,142.33605514789815 39.71709006919991,141.67248923136503 37.26650814374443,139.65808303182712 37.3517457760172,138.28353868905106 38.65161966683809,137.35927230599918 39.22697368403897,136.15061164664803 38.73685729899444,133.40148162754485 37.33043636800721,132.19280382164288 35.15687674714718,131.26851726020686 34.9650920748245,130.22572874522302 33.40950528741814,129.467334649642 33.36688647128176,128.73263840342406 32.3653442930663,128.89853772491915 31.98177494830452,128.66153866393142 31.89653731614817,126.93143941930612 30.596663425210863,126.76553892795346 31.022851586225443,125.22502965346212 32.791532453964464,124.20591884243186 33.920931080472656,122.2861883645528 33.920931080472656,121.59887424079352 33.19641120696906,120.74565435166005 32.15225021261722,120.88785784778884 31.89653731614817,120.65085198066663 32.47189133334905,119.41841822536662 32.98331712640356,114.70193874894176 33.36688647128176,114.44122650189092 35.19949556328356,114.98635183137958 35.88139662076719,112.16590927392826 36.66984471853357,112.26071452908218 36.904248206992634,112.09480531149893 36.54198827012442,112.0" stroke="#4dd2ff" stroke-linecap="round" stroke-linejoin="round" stroke-width="0.5"><title>2021-01-30 6.8km</title></polyline><polyline fill="none" points="76.09562809660565,112.0 74.69250475335866,112.97987887289491 74.20304312184453,114.90333827145514 76.16088964755181,115.48400355767808 76.22615119849797,118.02440490410663 78.51030547812115,118.49619206218631 78.02084384695627,120.38333548378432 76.45456662634388,122.34305252085323 73.06096598214936,122.48821638818481 71.55995031259954,123.86727066760068 71.29890410928056,125.7906810438144 69.73262688878458,127.64150172044174 70.51576549897436,129.85521788147162 68.81896517693531,131.45198963058647 68.62318052432965,133.5205259777431 67.12216485477984,133.2302056910703 66.56744167255238,133.59310601858306 65.88219538866542,136.2422690706444 63.859087312361225,137.76643762926687 61.73808690963779,141.61312457546592 63.30436412990093,145.49606589833274 65.32747220643796,147.70968955178978 69.79788843961433,148.0 70.80944247776642,147.70968955178978 71.72310418984853,146.258134352247 74.00725846958812,145.4234878794814 74.69250475335866,143.93563577590976 76.3240435248008,144.98801950743655 77.66190531710163,145.16946471636766 82.29547542752698,143.82676834543236 83.274398690206,143.9719249132031 85.91749149980024,142.91953867918346 87.35324561840389,143.50016588749713 89.40898447018117,143.50016588749713 91.59524642361794,142.59293552767485 91.23630789387971,141.75828189539607 89.63739989814349,142.8469602225523 87.64692259719595,142.48406775508192 87.09219941496849,141.17765231998055 86.50484545738436,141.50425655324943 86.60273778357077,140.19783812225796 84.61226048273966,141.54054589700536 85.33013754209969,140.77846902914462 85.1669836648507,139.83494340477046 84.02490652503911,140.3792853654013 82.62178318179213,139.54462740878807 80.43552122812252,139.29060075053712 80.66393665620126,138.637388650066 78.73872090608347,137.2946717516752 78.11873617302626,135.73421167620108 79.0976594358217,135.51647260790924 80.20710580027662,133.95600603779894 78.7060901307268,135.371313167474 76.45456662634388,135.73421167620108 74.82302785513457,137.9841755508096 74.20304312184453,139.94381185233942 71.9841503930511,140.77846902914462 71.07048868120182,142.2663321266009 67.44847260892857,143.10098476649728 65.65377996047027,142.33891068177763 65.68641073605977,143.4638767100405 67.61162648617756,144.1170814318466 68.98211905406788,143.8993466355605 72.60413512622472,142.62922477908432 73.87673536781222,141.03249480281374 76.58508972811978,140.0889697392995 80.27236735110637,141.21394169158884 81.93653689790517,140.8510478370299 83.274398690206,139.6897854313429 83.274398690206,138.3470718403405 78.44504392729141,135.80679134099046 79.68501339340582,135.84308116871398 80.66393665620126,134.89954464518814 81.34918294020463,135.77050151009462 85.26487599126995,136.31484864917002 87.28798406757414,137.51240991373197 88.72373818629421,139.9801013287506 87.94059957610443,137.65756862683338 84.41647583025042,135.00841435036273 84.64489125809632,132.90359513278236 86.7006301098736,131.52457002282608 87.54903027089313,130.00037919613533 86.63536855904385,124.99228533514543 84.71015280892607,123.50436207829625 80.92498285952024,121.90756062293076 80.79445975797717,120.2744620514859 78.64082857989706,119.36718236966408 78.51030547812115,118.3510268383252 77.85768996959087,118.06069624249358 77.0745513595175,118.45990076081944 76.25878197385464,117.91553087058128 76.68298205442261,116.28241703740787 76.22615119849797,115.41142044012668 74.43145855003968,115.04850466703647" stroke="#4dd2ff" stroke-linecap="round" stroke-linejoin="round" stroke-width="0.5"><title>2021-01-31 6.2km</title></polyline><polyline fill="none" points="119.65989211003762,122.55901523586363 120.28008348541334,123.54061408955022 120.35164402867667,121.577413296327 121.06724946177565,122.16106887551723 121.68744083726779,122.95696108895936 121.49661272170488,124.12426599918399 123.02323764562607,124.54873943005805 122.9039700734429,126.2200979552872 123.50030793435872,126.64456853712909 124.35903445421718,126.43233331831289 124.621423112927,126.83027423528256 124.28747391083743,127.99756466643885 123.23791927564889,129.37708409581683 120.9718354040524,129.45667156917625 119.73145265330095,130.30560335729388 119.30208939348813,132.02998894709162 118.20482772937976,133.40949056341196 118.70575153257232,135.02774430802674 117.46536878182087,136.27458983447286 117.3222476951778,137.7867149639933 116.43966766097583,137.4418449648656 116.01030440116301,137.65407270172727 115.36625951132737,139.829398689355 113.64880647184327,141.31497846206184 112.5276912933914,143.0658312656451 112.38457020674832,143.78208640197408 113.69651350064669,146.8327843269799 115.12772436696105,147.92041725170566 116.24883954552934,146.96542269128258 116.05801142996643,145.82473091749125 116.53508171869908,145.34723079853575 120.25622997095343,144.12694940026267 121.01954243297223,143.09235926295514 123.11865170346573,142.26999029892613 126.02878046478145,143.09235926295514 127.98476864851546,142.3230464264634 128.93890922609717,142.4822147549421 128.0324756774353,142.243462231796 127.86550107644871,140.86399963518488 123.54801496316213,138.90090774314012 122.04524355370086,140.6783022818854 121.44890569278505,142.29651836378616 120.06540185539052,142.7740231466596 119.18282182130497,143.99430983059574 117.44151526736096,143.88819813428563 116.34425360325258,143.3045831603231 115.6047946556937,143.49027895214385 115.2231384246843,144.1004214908753 114.19743730395567,143.49027895214385 114.03046270273626,142.45568670582725 112.76622643764131,143.0658312656451 112.5515448077349,143.75555846322095 113.5056853852002,146.38181346698548 114.91304273693822,147.84083448324236 118.96814019139856,148.0 119.75530616787728,146.75320128138992 121.44890569278505,146.355285749014 121.85441543825436,145.1880639299634 123.0709446745459,145.9573697099113 124.04893876647111,146.0900084458699 130.3224130634917,144.3391725946276 131.39582121314015,144.92278563554282 132.94629965152126,144.79014640382957 134.09126834454946,144.2861168095551 134.28209645999596,143.8616702045838 131.92059853067622,143.2780551809701 132.2306942184223,142.45568670582725 132.03986610285938,141.18233769823564 129.0104697693605,138.55603897431865 129.201297884807,137.017389058572 130.65636226558127,136.00930396912736 131.20499309769366,134.62981383682927 130.5370946933981,131.4728807977517 129.3682724860264,130.4647778106737 126.36272966687102,129.0852631861926 126.26731560914777,127.89144753472647 124.621423112927,127.06903854207485 124.57371608412359,126.40580390585819 123.71498956438154,126.59150974603835 123.09479818900581,126.29968623325112 123.26177278999239,124.86709412452183 122.88011655898299,124.25691400835058 121.66358732269146,124.1507956055575 121.66358732269146,122.71819363799295 120.92412837513257,123.48755477092345 119.23052885010839,123.27531740636914 115.89103682897985,121.60394311908749 115.65250168461353,120.91416699573165 114.38826541940216,121.04681636852911 112.40842372109182,119.95908984777634 112.83778698102105,118.57952880993253 112.59925183665473,117.91627614127356 114.69836110703181,112.95510149459005 114.67450759268831,112.39795931111439 112.90934752428439,112.0" stroke="#4dd2ff" stroke-linecap="round" stroke-linejoin="round" stroke-width="0.5"><title>2021-02-04 6.7km</title></polyline><polyline fill="none" points="170.75898588565178,115.42215701346868 173.46671931585297,115.46778562638792 173.09748293925077,118.38800878694747 171.08719599852338,120.80630657324218 167.14867464546114,120.76067841381882 165.1383877049666,122.40328970784321 164.44094121549278,125.32347516019945 162.758864387637,127.33109344911645 163.4563108771108,130.20562475337647 161.40499767242,132.3501063423173 161.28191888029687,134.85959520286997 158.94342182693072,134.76834126774338 157.79468643222935,138.4184865746647 154.79976915335283,140.92794708549627 153.44590243836865,143.61990078238887 155.78439949150197,143.16363839330734 155.66132069937885,144.80618118029088 157.13826620671898,145.58182463934645 157.63058137590997,147.17873411701294 160.09215722139925,148.0 166.20507057150826,146.03808497462887 168.50254136067815,143.61990078238887 171.415406111395,142.79862820301787 175.9693214255385,144.21304130877252 177.6513982533943,143.93928422409226 179.6206589299254,142.20548611486447 179.4975801378023,140.56293537604506 173.6308243724052,137.23219207048533 175.189822407905,137.36907233923557 176.58471538708545,135.8177605838864 176.83087297156453,137.41469908782165 178.02063463022932,137.09531176672317 179.087317496771,137.7340862189012 182.04120851145126,137.82533965003677 184.58483688510023,139.37664560772828 186.55409756163135,142.43361776482197 186.06178239244036,140.2891764312517 181.09760443726555,136.31965605381993 181.42581454990432,133.3539032934932 184.01046918774955,131.89383438089862 184.8720207340084,129.88623314586584 184.09252171614207,124.36529105860973 181.38478828594089,122.17514955077786 176.7077941794414,119.89374265007791 176.4616365947295,118.20549530468998 173.79492942872457,116.88227070251014 173.58979810820892,115.37652839676593 172.76927282614633,115.19401389101404 172.19490512902848,115.83281438975246 170.63590709352866,115.10275661485502 171.25130105484277,113.1863502341148 170.923090942204,112.0" stroke="#4dd2ff" stroke-linecap="round" stroke-linejoin="round" stroke-width="0.5"><title>2021-02-06 3.5km</title></polyline><polyline fill="none" points="31.130142155918293,152.0 32.13471296103671,153.08625880433829 32.13471296103671,154.01733520824928 30.572047264082357,156.6243365133414 28.172239229315892,158.14507868202054 27.753668060409836,159.85202663618838 29.4000479914248,160.16237995275878 29.76280967099592,160.96929734162404 29.483762225019746,162.3969160479901 30.125571350567043,162.8934777684335 30.878999454551376,162.5520916581445 31.381284857168794,162.80037249732413 31.130142155918293,164.19694907334633 29.76280967099592,166.18318211831502 27.36300163611304,166.2452517269703 25.800335939158686,167.20732931245584 25.158526813611388,169.22458054017625 24.042337029939517,170.55906369219883 24.40509870951064,172.57629641276435 23.0935757139232,174.1590404417948 23.009861480095424,175.67970961894025 21.41929103853181,175.64867561729625 20.55424395611044,178.25552256027004 18.377673878101632,180.17961194485542 17.233579350053333,182.9415935111174 18.377673878101632,186.01388555648737 19.633387384703383,187.34830738819437 20.972815125016496,187.87586816359544 23.958622796228155,188.0 25.07481257978361,187.53450539591722 25.828240683767945,186.2931835525087 27.781572805019096,185.82768677402055 28.36757244146429,184.55532588704955 29.790714415488765,185.61045474099228 30.711570987012237,185.67252104941872 37.855185602093115,183.68639395487844 39.4736607883824,184.30705983156804 41.31537393119652,184.21396001731046 42.76642064983025,183.1898604943999 42.571087437914684,182.63125954475254 39.94804144639056,182.28989187738625 40.28289838146884,180.98648512296495 39.83642246806994,179.58997272636043 36.48785311705433,176.67279627741664 36.711091074044816,174.93489285360556 38.46908998314757,173.69352820390486 39.05508961947635,172.32802221740712 38.44118523853831,168.5728544384765 36.79480530763976,167.17629459116142 33.78109289193526,165.93490357825067 33.27880748931784,164.63143847469473 32.804426831309684,164.50729869844508 33.055569532560185,164.25901901946054 31.660332303028554,163.66935410539736 31.353380112559535,162.5831267722824 30.013952372246422,162.76933740160894 29.539571714238264,162.3969160479901 29.902333393809386,160.81412105914205 29.483762225019746,160.06927398548578 27.753668060409836,159.97616799446405 28.172239229315892,159.57270842589787 28.116429740097374,158.3933625165664 28.869857843965292,157.55540389873204" stroke="#4dd2ff" stroke-linecap="round" stroke-linejoin="round" stroke-width="0.5"><title>2021-02-06 4.1km</title></polyline><polyline fill="none" points="78.8313259530114,152.0 78.80265496892389,153.33930010112817 77.59847364423331,155.50768060787232 74.84605918743182,157.54849787589046 74.90340115537401,158.76022787814145 74.50200738024432,159.1747661913396 76.25093739968725,159.4298664641683 76.45163428725209,161.98085965652717 78.28657725825906,162.01274696170003 77.82784151553642,163.9578674552322 76.48030527099036,165.6478819953336 74.01460065355059,165.5203339937143 72.52370948949829,166.54071679370827 71.74959292355925,168.90034139473573 70.63142455054913,169.9526016371965 71.11883127724286,172.21654549156665 69.68528208101634,173.81086395613966 69.68528208101634,175.37328948173672 68.10837796528358,175.21385860361625 67.04755155998282,178.0836040506838 64.98324071743991,179.86921236821217 63.52102053735871,182.64326558631728 64.98324071743991,186.08688934054226 65.9580541709438,187.2985272234073 67.64964222244453,187.93622980173677 70.48806963092647,188.0 71.69225095573347,187.71303402257035 72.43769653781783,186.37385656088009 74.50200738024432,185.8955777383817 75.07542705885135,184.52450840352685 77.39777675666846,185.7042660387524 82.70190878259018,184.46073761492153 84.99558749655262,183.4722890064877 86.25711078918539,184.14188350949553 88.09205376030877,184.04622722507338 89.81231279589701,183.1534340615617 89.49693197268061,182.45195222942857 87.08856932306662,182.26063877498382 86.88787243561819,181.7185834578704 87.37527916231193,181.04898463268182 86.88787243561819,179.2633819267503 83.47602534864563,176.5530758756504 83.61938026826829,174.73556556284893 85.42565225542057,173.52388713220716 86.19976882135961,171.86579452070873 85.54033619118854,168.13505936559523 83.61938026826829,166.57260371150915 80.49424302042462,165.3290119098674 80.37955908488948,163.92598031533998 78.40126119402703,162.96936485759215 78.1432223386364,161.91708503803238 77.16840888524894,162.1721834470518 76.36562133545522,161.78953576850472 76.6523311745841,160.131391320494 76.22226641571615,159.36609141225927 74.78871721960604,159.04721598990727" stroke="#4dd2ff" stroke-linecap="round" stroke-linejoin="round" stroke-width="0.5"><title>2021-02-07 4.0km</title></polyline><polyline fill="none" points="120.73828756122384,153.74690236937022 122.65042655123398,154.12666285067098 123.12846129853278,155.0760626421834 122.65042655123398,156.74700137751643 123.0943159594899,157.31663815511274 125.00645494926721,157.088783531246 125.14303630567156,158.60781216353644 123.0943159594899,161.34205069343443 119.37247399706393,161.5319277480594 117.8359337374568,163.12689182296162 117.63106170285027,164.7978004642937 115.99208542588167,167.22820188465994 116.67499220801983,169.62061537781847 115.0701612700941,171.1016268384119 114.96772525273263,172.9623778727837 113.05558626295533,173.03832673010766 111.9629354114877,176.11424460812123 109.504470996093,178.24079274348333 107.72891336283647,181.3926222670707 109.36788963968866,185.75957826146623 111.89464473340195,187.810134186293 116.50426551233977,188.0 118.07495111122262,186.10133823542856 120.49927018769085,185.41781802638434 121.11388629151043,184.1267214473919 124.4259841843741,185.18997772457078 133.3037723514717,182.7217003457481 134.80616727215238,183.51914529665373 137.33292236586567,183.3292775802256 138.93775330367498,181.96222764175036 138.49386389530264,181.50654340014444 135.65980074973777,181.27870110515505 135.62565541046206,178.20281875837827 131.3574880225351,174.4433782628912 131.56236005725805,172.2788375764212 133.64522574248258,170.79783001568285 134.53300455911085,168.78517085095518 133.74766175984405,164.53197450723383 131.56236005725805,162.59523776356946 127.90880877326708,161.0762226812949 127.39662868657615,159.13947096528136 125.41619901848026,158.3799581977364 125.0406002884265,157.1647350853891 122.88944392476697,156.974856175686 122.85529858572409,154.2785669528239 120.43097950937226,153.89880660059862 121.01145027403254,152.0" stroke="#4dd2ff" stroke-linecap="round" stroke-linejoin="round" stroke-width="0.5"><title>2021-02-11 3.6km</title></polyline><polyline fill="none" points="170.01677188382018,152.0 169.14463391667232,152.63422242857632 169.31235275638755,154.53688421825063 168.94337130873464,154.68611224522465 170.98954115540255,155.09648905787617 171.0901724593714,157.96911600857857 173.23697360989172,158.19295628054533 172.76736085826997,160.24482012260705 171.25789129920304,162.25936802191427 168.00414580537472,162.25936802191427 166.36050117434934,163.49047607756802 165.92443219048437,165.57962124396 164.38141886377707,167.59414467058377 164.98520668724086,169.94441032214672 163.30801828822587,171.80969156956417 163.27447452023625,173.63765950582456 162.7377742327517,174.08532396311057 161.19476090569515,173.74957566300873 160.35616670630407,176.47286002893816 158.24290932365693,178.3381135496893 156.26382701285183,181.69554992529447 157.70620903593954,185.9855701684719 158.81315337924752,187.36582864201046 160.08781656227075,188.0 161.3624797455268,186.8808734564518 161.0941296017263,185.27678710478358 162.10044264106546,184.38148054736666 167.09846406977158,182.74008045220398 167.83642696542665,181.54633107574773 169.04400261270348,180.80023606788018 171.39206637104508,180.16605431473 175.41731852851808,181.35980744255357 176.42363156797364,181.13597897827276 177.83246982295532,180.12874947718228 178.13436373474542,178.78577321601915 173.06925477006007,175.838672027312 173.4046924499562,175.42831459725858 174.47809302515816,175.9132824280241 175.71921244030818,174.75681979357614 175.88693128013983,175.76406161408522 180.14698981342372,176.28633424124564 182.22670342819765,177.5547080358665 183.73617298714817,180.09144463643315 183.09884139546193,178.07697853370337 179.2077643100638,175.05526205521892 179.64383329381235,172.5931073310494 181.69000314048026,171.21280243230285 182.3608785001561,169.5713531220681 181.58937183651142,165.05733588410658 179.64383329381235,163.49047607756802 175.85338751226664,161.77438511300716 175.61858113633934,160.09559398461715 173.37114868185017,159.1256228518032 172.93507969810162,157.85719582991442 171.29143506719265,157.9318092855683 170.8889098514337,155.021875120583 168.80919623665977,154.7234192440228 169.1781776844291,154.3130420826201" stroke="#4dd2ff" stroke-linecap="round" stroke-linejoin="round" stroke-width="0.5"><title>2021-02-13 4.0km</title></polyline><polyline fill="none" points="21.68312398029957,225.40219095651992 22.8639150201343,224.91688374444493 22.88958439056296,226.17297155878623 23.582657392253168,226.45844540733378 24.27573039382696,227.6003383770876 25.27683584066108,228.0 29.33259636873845,226.6868243115896 30.128346852143295,225.57347568750265 32.361582079553045,224.71705115938676 34.67182541836519,225.51638078683754 36.31466512591578,225.5449282383779 37.80348861089442,224.3744807371695 37.72648049960844,223.34676737550762 34.00442178722005,221.69100034958683 33.61938123067375,220.8631137777411 32.18189648655243,221.57680921960855 30.38504055631347,224.8026937104587 28.870547700906172,225.31654855821398 28.15180532890372,226.4869927788386 26.483296250924468,226.4869927788386 25.02014213637449,225.83040262039867 23.839351096539758,226.42989803335513 24.14738354180008,226.88665572553873 25.456521433661692,227.17212896802812 28.100466588162817,226.5726348788885 28.947555812308565,225.2023586599098 30.718742372002453,224.63140858663246 31.206460410146974,223.06129088398302 32.515598302241415,221.26278341191937 33.31134878541343,221.0058529874368 34.851511011249386,221.49116584658623 35.775608346797526,220.60618304772652 36.083640792174265,221.34842684309115 39.31798146630172,221.71954812604235 40.781135580851696,222.60452799333143 42.09027347294614,224.8026937104587 41.499877952970564,222.9756478893396 38.547900353441946,220.69182664624532 38.958610280416906,218.86475847804104 40.49877250613645,217.75138394263922 40.9864905445138,216.5238128718629 40.42176439485047,213.0694609133643 39.215303984703496,211.98461578181013 35.903955199057236,210.61428008347866 35.85261645819992,209.32958529147436 34.36379297322128,208.67296161220293 33.90174430550542,207.58810228758375 32.97764696995728,207.81649401545292 32.28457396826707,207.47390636545606 32.515598302241415,205.90370850107865 31.822525300551206,205.1043322243495 30.79575048328843,205.13288140986697 30.847089224145748,203.53412328730337 30.30803244514391,203.02023513254244 29.15291077562142,202.62054380201153 29.178580146166496,204.5904464708874 24.68644032080192,202.50634619177436 24.404077245970257,201.7926102479978 22.786906908848323,201.6784123563557 20.887373496894725,200.65062958467752 20.50233294046484,199.73704225939582 23.197616835823283,192.62810601652018 20.9643816081807,192.0 17.909726527053863,192.0856508896104" stroke="#4dd2ff" stroke-linecap="round" stroke-linejoin="round" stroke-width="0.5"><title>2021-02-15 4.7km</title></polyline><polyline fill="none" points="75.22449021635111,207.86191909961053 76.23172456258908,208.0146782832744 76.52931652858388,208.65117404347984 76.20883287291508,209.74594358869945 76.48353314911947,210.15329867767286 77.78835946135223,210.05145995729254 77.62811763351783,211.24806273533613 76.48353314911947,212.8774716014159 74.10279742151033,212.95384992467007 73.07267138559837,213.92130700065172 72.72929604025558,215.3215682898881 71.69917000434361,216.6454456737556 72.1112204187084,218.3002841800626 71.08109438268002,219.34410069233854 70.94374424463604,220.79525419379934 69.63891793240327,220.87163049916853 69.06662569008768,222.7555732059118 67.32685727393255,224.41037797695026 66.68588996259496,225.78513191599632 67.73890768829733,225.42871483357158 67.78469106764533,226.2179235178337 68.24252486147452,226.75254757492803 70.25699355395045,227.33808711485472 72.56905421242118,226.8543806205853 73.02688800625037,227.083504846727 74.49195614620112,225.86150694999378 76.50642483879346,225.25050613339408 79.84861153329257,225.9887986300164 81.17632953531574,224.99592209229013 81.17632953531574,224.07941775361542 77.30763397796545,221.96635540522402 76.36907470063306,222.22094201960135 75.2931652853731,223.82483271780075 74.8811148708919,225.14867254291312 73.43893842061516,225.63238178973552 72.54616252274718,226.9052971304045 70.82928579614963,226.72708930814406 69.98229327762965,226.2179235178337 69.24975920771249,226.31975674509886 68.81481710355729,226.87983887660084 69.20397582824808,227.71996011162992 70.66904396843165,228.0 73.71363869681954,226.9562136316381 74.42328107717913,225.93788196446258 76.48353314911947,225.09775573463412 79.50523618794978,225.9124236284406 81.06187108682934,225.17413094377844 81.72573008772451,225.42871483357158 82.48115584743209,224.89408841516706 82.7329644340789,225.53054832897033 82.1148888124153,226.24338182783686 83.41971512464806,225.27596452558646 83.35104005550966,226.11609025596408 83.90044060815126,225.7087568625866 84.28959933284204,226.8543806205853 85.73177578323521,227.15987954984303 86.64744337077718,226.67617276802775 86.48720154282637,226.29429844146944 84.86189157492481,226.14154857464018 84.95345833385363,224.51221181833535 84.49562453990802,223.59570600066218 81.9317552949069,221.6099337817286 82.2064555712277,220.00603123111068 83.51128188346047,219.1658883743803 84.10646581533365,217.9438581969007 83.46549850399606,214.73600527393864 82.0004303639289,213.64125395775773 79.68836970545817,212.67379597766558 79.32210267044138,211.37536062204163 77.78835946135223,210.66249176010024 77.74257608188782,209.9750808943936 76.66666666674428,210.1278390007792 76.27750794193707,209.84778241283493 76.50642483879346,208.47295536688762 76.11726611410268,207.86191909961053 74.90400656068232,207.7346197204606 75.08714007819071,206.3088629791746 77.12450046045706,205.06132026584237 78.45221846236382,202.92266353065497 78.42932677268982,202.1588538545475 77.62811763351783,201.26774010504596 76.14015780389309,201.39504223151016 76.75823342544027,200.0201764033991 77.19317552947905,197.42319040454458 77.14739215001464,195.0298696514219 78.47511015203781,194.41880596984993 79.73415308492258,195.13171347719617 80.39801208593417,192.050922432245 81.35946305270772,192.25461207435 81.33657136303373,192.0" stroke="#4dd2ff" stroke-linecap="round" stroke-linejoin="round" stroke-width="0.5"><title>2021-02-16 6.0km</title></polyline><polyline fill="none" points="123.78938412596472,197.4734332372027 123.42878582479898,199.90341426772648 122.98334086465184,200.77631488267798 123.40757416002452,200.94145793354255 124.23482908622827,200.61117173358798 125.04087234765757,201.6492127533711 124.95602568855975,202.3569657690241 123.98028910893481,203.98479085869621 121.94396929058712,205.35310021828627 121.71064097806811,206.65062872713315 123.00455252930988,206.86295099678682 123.0893991884077,208.70307053314173 124.48936906352174,208.75025292500504 124.27725241577718,210.02417447519838 123.15303418273106,211.43963600997813 121.11671436438337,211.46322697438882 120.07734279031865,212.3360912502394 119.7803794835927,213.63358713057823 118.78343123907689,214.90748627882567 119.16524120501708,216.46446619101334 118.18950462550856,217.3844956724788 118.08344630151987,218.7527390079922 116.87438140937593,218.6347872618935 116.30166646046564,220.59277976231533 114.73200326715596,221.8666469893942 113.60778503410984,224.06051574004232 114.64715660805814,226.5374435026897 115.38956487516407,227.4102604034415 116.15318480704445,227.8348730391881 118.65616125043016,228.0 119.50462784140836,227.7876938895497 120.05613112566061,226.84410921274684 121.56215932464693,226.4902641325607 122.02881594968494,225.4523159635428 123.19545751227997,226.11282888351707 124.10755909758154,226.18359803172643 129.49532195040956,224.6030827582872 130.44984686526004,225.12205891450867 131.84981674037408,225.0512894957501 133.05888163251802,224.34359431665507 132.91039997909684,223.9661561504181 130.91650349029806,223.6123074038478 131.19225513236597,222.85742857100558 130.78923350165132,221.583565888257 128.30746872304007,219.64917064196197 128.45595037646126,218.0686181828496 129.83470858668443,217.1721814472694 130.3650002060458,215.92188327314216 129.8134969220264,213.25613440884626 128.28625705826562,212.07659134676214 126.1226672512712,211.2744992026419 126.0166089272825,210.18931202602107 124.46815739874728,209.34003214698168 124.40452240442391,208.70307053314173 123.66211413731799,208.89180005251546 123.06818752363324,208.60870572534623 123.04697585885879,206.9573163978639 121.79548763704952,206.74499420035863 122.0500276144594,205.23514278040966 123.81059579073917,204.14993200125173 124.97723735345062,202.21541531020193 125.06208401243202,201.5312537419668 124.25604075111914,200.7055392593902 122.98334086465184,200.72913113579853 123.55605581344571,199.47875892210868 123.98028910893481,194.7367301074264 124.78633237048052,194.3592516965582 126.37720722844824,194.7367301074264 127.01355717179831,192.14155566721456 127.79838876845315,192.0 127.41657880239654,192.68418505607406" stroke="#4dd2ff" stroke-linecap="round" stroke-linejoin="round" stroke-width="0.5"><title>2021-02-17 5.3km</title></polyline><polyline fill="none" points="167.794727928238,192.0 168.67683675698936,192.81045494039427 168.7918944300618,194.47401624554186 168.2933111791499,195.02853545569815 170.86293254978955,195.83898550714366 170.97799022309482,198.82484282931546 173.164086015895,198.82484282931546 173.01067578489892,201.17086112545803 171.20810556970537,203.68748674722156 167.67967025493272,203.77279586932855 165.68533725081943,205.0950854078983 165.03334376891144,207.56903712754138 163.34583122679032,210.08563068098738 163.92111959354952,212.7728268218052 162.15690193604678,214.4789756378741 161.92678658943623,216.86757424124517 159.9708061432466,216.86757424124517 158.74352429434657,220.36514455411816 156.2506080395542,222.49779742356623 154.48639038205147,225.2702326135477 156.32731315493584,224.58778844834887 157.24777454161085,226.84838119332562 160.89126752968878,228.0 166.45238840626553,227.27490698522888 167.94813815923408,225.3981907912239 171.09304789616726,224.2039131980273 175.69535482861102,225.6114543482836 176.96098923496902,225.3555380688922 178.99367479677312,223.99064904314582 178.9169696813915,222.4551444548706 173.3174962468911,219.42677442225977 175.1967715776991,219.34146795980632 176.23229063744657,218.18982929672347 176.8842841195874,219.51208087039413 177.61298271734267,219.12820173989167 178.53344410378486,219.76800012771855 181.44823849434033,219.98126607577433 184.40138544235379,222.15657357306918 185.5136096177157,224.16126037423965 184.55479567334987,221.60208432155196 180.29766176105477,218.44574922780157 180.83459756989032,215.71592990448698 182.79057801607996,214.3936683346983 183.90280219144188,212.21832720848033 183.05904592061415,207.09984032437205 180.56612966535613,205.0950854078983 176.7308738885913,203.68748674722156 175.8104125019163,201.08555156126386 173.5859641514253,200.27510997874197 173.3174962468911,198.69687787976 172.24362462945282,198.9954627113766" stroke="#4dd2ff" stroke-linecap="round" stroke-linejoin="round" stroke-width="0.5"><title>2021-03-06 3.5km</title></polyline><polyline fill="none" points="29.180058929836378,232.31719274187344 29.71480310615152,233.1498226633703 29.607854270841926,235.489108302776 31.88942942256108,235.72700110072037 31.39033485832624,237.94732803446823 29.393956600455567,240.20729281555396 26.4350388252642,240.1279959908279 24.61690862639807,241.51568847638555 24.082164450082928,243.77563597855624 22.513581533450633,245.8769808555371 23.01267609768547,248.37479359121062 21.230195510433987,250.2778800369415 21.087597063509747,252.45849038331653 19.376415699720383,252.22060611331835 18.093029676703736,255.39238641160773 15.454958407441154,257.65226672557765 13.565528984880075,260.86365677192225 15.34800957236439,265.34370721151936 16.845293265767395,267.08814000021084 22.370983086293563,268.0 23.79696755623445,267.5638932658767 24.68820784986019,265.85910848670756 27.29062950750813,265.2247683748428 28.074920965824276,263.5992679040064 29.679153494536877,264.74901272539864 31.140787576092407,264.9868906106567 40.55228507705033,262.4098737295135 41.87132071168162,263.12351059773937 44.616340816253796,262.9252782437834 46.434471015119925,261.6962357700395 45.93537645065226,261.1808298986289 42.86950984084979,260.9825967196666 42.61996255838312,259.9517828319513 43.226005958160385,259.0795539181854 42.72691139369272,257.2557972863724 38.30635953717865,253.72720444240258 38.73415487795137,251.0708304324944 41.01573002990335,249.72281395853497 41.693072652909905,248.01796401877073 40.98008041805588,243.22056216729106 38.484607595950365,241.23815030936385 34.6700991387479,239.7711601134797 34.63444952736609,237.9869766336633 32.31722476356663,236.99576064193388 31.96072864625603,235.60805471689673 30.534744176315144,235.80629867312382 29.536555047379807,235.33051303675165 30.035649611847475,233.1498226633703 28.645314753754064,232.0" stroke="#4dd2ff" stroke-linecap="round" stroke-linejoin="round" stroke-width="0.5"><title>2021-03-07 3.5km</title></polyline></svg>