<?xml version="1.0" encoding="utf-8" ?>
<svg baseProfile="full" height="300mm" version="1.1" viewBox="0,0,200,300" width="200mm" xmlns="http://www.w3.org/2000/svg" xmlns:ev="http://www.w3.org/2001/xml-events" xmlns:xlink="http://www.w3.org/1999/xlink"><defs /><rect fill="#222222" height="300" width="200" x="0" y="0" /><text fill="#FFFFFF" style="font-size:12px; font-family:Arial; font-weight:bold;" x="10" y="20">Over 10km Runs</text><text fill="#FFFFFF" style="font-size:4px; font-family:Arial" x="10" y="280">ATHLETE</text><text fill="#FFFFFF" style="font-size:9px; font-family:Arial" x="10" y="290">陈学新</text><text fill="#FFFFFF" style="font-size:4px; font-family:Arial" x="120" y="280">STATISTICS</text><text fill="#FFFFFF" style="font-size:3px; font-family:Arial" x="120" y="285">Number: 20</text><text fill="#FFFFFF" style="font-size:3px; font-family:Arial" x="120" y="290">Weekly: 2.5</text><text fill="#FFFFFF" style="font-size:3px; font-family:Arial" x="141" y="285">Total: 80.7 km</text><text fill="#FFFFFF" style="font-size:3px; font-family:Arial" x="141" y="290">Avg: 4.0 km</text><text fill="#FFFFFF" style="font-size:3px; font-family:Arial" x="167" y="285">Min: 1.0 km</text><text fill="#FFFFFF" style="font-size:3px; font-family:Arial" x="167" y="290">Max: 6.8 km</text><polyline fill="none" points="35.63043570343871,32.59107310403488 34.27604311343748,32.25 33.38163291232195,33.18795019903337 32.691659328644164,38.38926265813643 32.180567785399035,39.69668367039412 29.574000913766213,41.94202522371779 26.32856961293146,43.56207242712844 26.55856080749072,44.32946046919096 28.500708672450855,45.381063445529435 30.67284773220308,46.31897682455019 30.54507484624628,47.11478005355457 32.10390405380167,47.427416518417886 32.23167693964206,49.64428488811245 33.84161530144047,49.84323389525525 33.509405798395164,51.3779794020229 32.33389524836093,52.82745480464655 29.80399210820906,52.969559898308944 28.526263249805197,54.02113571501104 28.142944592167623,55.61270363692893 27.14631608244963,56.948478013218846 27.58074389444664,58.79581676700036 26.277460458572023,60.24526003256324 26.354124190169387,61.41049418321927 25.970805532531813,61.75153755725478 24.744185828254558,61.6946970190038 24.054212244576775,63.74095031057368 22.18872811109759,65.41773187351646 20.834335521096364,67.83341935215867 22.18872811109759,71.32903035607887 23.747557318536565,72.5510646130424 27.17187065957114,72.75 28.602926981286146,71.35744980815798 30.23841992020607,71.04483570327284 31.05616638972424,69.73753719136585 32.896095946081914,70.73222130633076 39.77027720538899,68.91336811325164 40.99689690954983,69.39650195694412 42.73460815730505,69.42492157308152 44.16566447902005,68.5154926594114 44.08900074730627,68.00393780926242 41.61020676163025,67.60606127398205 41.865752533543855,66.55452815350145 41.55909760738723,65.13353219995042 38.51810292399023,62.746245412447024 38.696984964073636,60.81366744230036 40.38358705746941,59.73369253825513 40.843569446587935,58.28424705634825 40.28136874875054,55.07270822633291 38.64587580983061,53.70850541206892 35.73265401215758,52.51482338630012 35.63043570343871,51.17903130760533 34.12271565035917,50.582186314393766" stroke="#4dd2ff" stroke-linecap="round" stroke-linejoin="round" stroke-width="0.5"><title>2020-12-29 4.1km</title></polyline><polyline fill="none" points="80.71761642210186,33.0736814190459 79.10880821093451,32.25 78.598075445625,32.477222663204884 77.57660991477314,39.180221734859515 76.78497412835713,40.37311425956432 74.56328659877181,42.21924906008644 69.3793490298558,44.406195553718135 74.30792021611705,46.73513582866872 75.6358254061779,45.71267624257598 75.58475212962367,47.21796287948382 76.88712068134919,47.30316758071422 77.3467801703373,47.8995998816099 77.29570689378306,49.660489037429215 77.72982974431943,49.94450254878029 78.67468536039814,49.575284937018296 78.98112501960713,50.2853184438427 78.39378233940806,51.87578802686767 77.21909697900992,53.12543739093235 74.94633617287036,53.12543739093235 73.66950425936375,54.09107233659597 73.26091804692987,55.79512720162165 72.26498915441334,56.93115895302617 72.62250209029298,58.80560290359426 71.4222800914431,60.33923104664427 71.34567017666996,61.674049815599574 69.8390085187275,61.75925083263428 68.79200634965673,64.45727181114489 67.31088132993318,65.65007414572756 65.88082958688028,68.0356660495745 67.361954606371,71.38682592933765 68.30681022244971,72.3524081367068 71.65210983587895,72.75 72.75018528150395,72.60800296027446 73.56735770625528,71.44362495988025 75.25277583219577,71.04603154340293 76.01887498027645,69.7112501875672 78.11287931841798,70.67683723336086 85.05884492804762,68.7740600942634 86.20799365034327,69.42725346700172 88.174314797041,69.22845561910071 89.1191704130033,68.57526185802999 88.9404139452381,68.09246564935893 86.7442630539881,67.8652671922755 86.5655065861065,67.35407009944902 86.94855616008863,66.61567291902611 86.61657986254431,65.45127405205858 83.52664663176984,62.69646058770013 83.73093973787036,61.02084129661671 85.18652811949141,59.99842540058307 85.82494407624472,58.72040113375988 85.28867467248347,55.17030809284188 83.83308629109524,53.977468370081624 80.97298280475661,52.8982287630497 80.74315306032076,51.87578802686767 79.92598063568585,51.30776404435164 80.23242029477842,51.16575789795024 78.95558838138822,50.71133782409015 78.598075445625,49.83089717317489 77.16802370245568,49.660489037429215 77.27017025544774,48.04160741544911 76.75943749002181,47.445175367902266 75.68689868273214,47.388372260320466 75.84011851227842,46.56472611485515" stroke="#4dd2ff" stroke-linecap="round" stroke-linejoin="round" stroke-width="0.5"><title>2020-12-30 4.7km</title></polyline><polyline fill="none" points="139.25210894690827,32.25 138.21976609900594,37.46914711664431 132.025709008798,36.00778815918602 128.7409817641601,38.61735650629271 127.89633761579171,51.76949659141246 125.26855581998825,61.998841524124146 115.8836208358407,71.28868301422335 113.25583904003724,72.75 109.31416634703055,70.14050416334067 112.88044164096937,65.44339768751524 112.7865922912024,57.5104659703793 110.25265984516591,54.27465016557835 107.43717934982851,54.48341273260303 105.74789105262607,56.88417970587034 106.12328845215961,66.17405987437814 108.93876894703135,69.0967042761622 113.0681403405033,66.59158092935104 112.7865922912024,57.406084948568605 110.62805724469945,54.27465016557835 107.53102869959548,54.587794002960436 105.74789105262607,56.88417970587034 106.87408325076103,67.73976309713908 109.50186504609883,68.99232423864305 112.7865922912024,66.90472162666265 112.88044164096937,58.86741844890639 111.00345464376733,54.587794002960436 106.21713780192658,55.527225036523305 106.21713780192658,66.695961170597 109.68956374563277,71.07992330286652 113.53738708980381,71.91496193548664 123.67311687255278,63.66893056733534 125.08085712045431,61.0594154400751 127.80248826602474,38.408591242390685 132.40110640833154,36.94723340298515 135.1227375534363,38.51297387864906" stroke="#4dd2ff" stroke-linecap="round" stroke-linejoin="round" stroke-width="0.5"><title>2020-12-31 2.4km</title></polyline><polyline fill="none" points="167.26453488366678,35.91381005823496 165.9302325581666,36.13205640032538 165.0668604648672,41.45723841065774 162.2412790695671,40.58426153677283 161.103197674267,41.238994331186404 159.72965116263367,50.40516582582495 158.47383720916696,52.6748592161166 154.4709302324336,55.904790212225635 147.25,59.091053593641846 154.23546511610039,62.40823830824229 164.125,60.40047117136419 172.1308139534667,63.935881960293045 178.25290697673336,65.33258075261256 180.52906976733357,63.45576587342657 183.07994186040014,65.81269508544938 184.375,68.47513915182208 185.51308139553294,69.08618994176504 187.75,68.2132600195182 186.7296511628665,66.64198242180282 187.71075581386685,65.81269508544938 187.12209302326664,63.717647431010846 183.82558139553294,56.90868354693521 182.09883720916696,54.68265654795687 177.86046511633322,50.18692554815789 165.10610465100035,42.024672583065694" stroke="#4dd2ff" stroke-linecap="round" stroke-linejoin="round" stroke-width="0.5"><title>2021-01-01 3.0km</title></polyline><polyline fill="none" points="12.25,98.74471413902938 12.25,101.52285822748672 25.274229075061157,102.31661125295796 30.269823788665235,103.75528586097062 32.32158590317704,101.52285822748672 36.11288546258584,100.48105574370129 38.8337004405912,101.22520056460053 45.97026431723498,100.28261696442496 48.69107929524034,100.92754275002517 50.296806167578325,99.98495866934536 52.75,100.92754275002517" stroke="#4dd2ff" stroke-linecap="round" stroke-linejoin="round" stroke-width="0.5"><title>2021-01-01 1.0km</title></polyline><polyline fill="none" points="79.09020507987589,81.0 80.01252402644604,81.95506718874094 79.82169941684697,83.36997751498711 78.23149433673825,85.91680398382596 75.40092929429375,87.75616896644351 75.14649648137856,89.70164231627132 76.92752617108636,90.01999163528671 77.30917539040092,90.9042940219515 77.0229384759441,92.67289316069218 79.05840097833425,92.77900887007127 78.80396816553548,94.86594565896667 77.49999999988358,96.38692689800519 73.81072421430144,96.98824352983502 72.4749519469915,98.12013130437117 72.18871503265109,100.03018494672142 70.72572635894176,102.15245649515418 71.39361249248032,104.1686044470116 69.83521151414607,105.79566409735708 69.77160331094638,107.81179440949927 67.70433670678176,107.88253564666957 67.00464647170156,110.53532336646458 64.49212244525552,112.79902219073847 62.96552556846291,115.7347382765438 65.00098807085305,120.19132796069607 66.36856443970464,121.2877831919759 67.70433670678176,121.5 71.55263300065417,121.39389160953579 72.31593143905047,119.94374089606572 74.5422185510397,119.37782705263817 75.65536210709251,117.78619024538784 77.97706152393948,118.98876083921641 86.75499356572982,116.79583538419683 88.09076583303977,117.5386017508863 90.28524884337094,117.36175273612025 91.81184572016355,116.65435592600261 92.03447443142068,115.7347382765438 88.79045606811997,115.13344871532172 89.23571349063423,113.96623708878178 89.0130847793771,112.58680094865849 86.91401407367084,110.3584713775781" stroke="#4dd2ff" stroke-linecap="round" stroke-linejoin="round" stroke-width="0.5"><title>2021-01-03 3.0km</title></polyline><polyline fill="none" points="102.25,114.53419292371836 102.53293413179927,109.40943047552719 103.34131736541167,108.46538987345411 111.86976047907956,108.55529857482179 115.06287425151095,109.67915605229791 116.11377245513722,109.04979615902994 118.25598802394234,110.30851519710268 119.95359281427227,110.53328613864142 129.20958083844744,106.66721263824729 133.29191616759636,102.75615604949417 134.7874251496978,93.31555550277699 137.2125748503022,92.64122044568649 139.9610778442584,93.22564421151765 141.05239520943724,88.19058751073317 142.75,88.41536784972413 142.62874251487665,87.96580707631074" stroke="#4dd2ff" stroke-linecap="round" stroke-linejoin="round" stroke-width="0.5"><title>2021-01-04 1.5km</title></polyline><polyline fill="none" points="187.75,98.52140617623809 187.02497918403242,98.57766684384842 185.8447127394611,97.48995806177845 185.35574521234958,99.15902623566217 147.28372189839138,102.53463114979968 147.25,104.7850057411415 147.82327227311907,105.01004193822155" stroke="#4dd2ff" stroke-linecap="round" stroke-linejoin="round" stroke-width="0.5"><title>2021-01-09 2.7km</title></polyline><polyline fill="none" points="37.174751390120946,133.00299094061484 35.904177935328335,131.2165164843318 34.34592747199349,132.0964230847021 26.818379079457372,132.76301735133165 26.602621323079802,133.61625594607904 25.81150954926852,134.38950141856913 20.849081150372513,133.88289253116818 20.417565637500957,133.3762828258914 19.075072930543683,133.29629174494767 19.434669191250578,132.54970734010567 20.29770021722652,132.94966349226888 20.96894657064695,133.90955617724103 23.486120396177284,133.6695832812693 23.79777048889082,134.0162107386859 26.243025062256493,134.416165021481 23.917635909165256,140.70871196460212 23.70187815267127,141.45527695707278 24.037501329439692,142.09518839413067 25.763563381158747,143.16170455593965 27.29784076055512,143.13504169607768 28.017033282085322,144.1215660025773 31.70888822618872,145.72132855601376 32.21232299134135,145.7479911961418 31.924645982682705,143.88160091612372 32.81165009259712,144.3348681475327 33.48289644601755,145.3213886821759 33.171246353304014,146.22791833110387 34.75346990081016,146.70784473224194 34.657577564707026,148.41424376980285 35.04114690946881,148.76085494054132 36.14390877599362,148.54755580384517 36.38363961642608,148.94749156627222 36.0000702716643,150.17395805966225 34.7055237328168,151.69370336961583 32.667811588267796,151.66704123461386 31.421211217646487,152.49356636646553 30.91777645237744,154.2532577838283 29.83898767014034,155.61301257630112 30.31844935112167,157.319363196817 29.191714400658384,158.3325044886733 29.04787589632906,159.8522102946008 27.72935627354309,159.77222596199135 27.082083004061133,161.93179578980198 25.403967120451853,163.3448396110034 24.06147441349458,165.82431622545118 25.859455717378296,169.50350349696237 26.74645982729271,170.09003661311 27.993060198030435,170.25 30.486260939389467,170.22333944117418 31.301345797255635,168.9969512874668 33.05138093314599,168.70368384529138 33.53084261424374,167.557272124046 34.849362237146124,168.2504518047499 35.88020485127345,168.33043397709844 40.003575308364816,167.53061133652227 41.94539511669427,166.7307866580668 43.02418389893137,167.18402089271694 44.55846127832774,167.10403842825326 45.92492706945632,166.41085621601087 45.73314239678439,165.71767247311072 43.6954302523518,165.53104581919615 43.79132258868776,163.87806204138906 43.43172632786445,163.13155038529658 40.674821661785245,160.86534341081278 40.770713998004794,159.31898102519335 42.233072125236504,158.27918134426 42.880345394602045,156.9194381024863 42.32896446145605,153.8266668310098 40.74674091406632,152.4669042993628 38.30148634058423,151.42708191776183 38.08572858420666,150.25394483836135 36.335693448316306,149.4007514808618 36.28774728020653,148.57421820386662 35.161012329743244,148.76085494054132 34.72949681687169,148.49423099693377 34.63360448065214,146.54786934674485 33.171246353304014,146.36123129396583 33.650708034518175,144.6281583601667 35.64047401084099,143.48165869773948 36.9110474656336,141.32196191014373 36.9110474656336,140.54873352090362 36.09596260776743,139.5888611456321 34.92128148919437,139.74884007876972 34.63360448065214,139.4822084782645 35.28087775001768,138.09572050353745 35.856231767334975,132.78968109257403 36.28774728020653,132.49637981463457 38.34943250869401,133.1096458102984 39.116571198333986,129.93664793320931 40.003575308364816,130.04330384521745 40.26727923285216,129.8566559754545 39.85973680403549,129.75" stroke="#4dd2ff" stroke-linecap="round" stroke-linejoin="round" stroke-width="0.5"><title>2021-01-30 6.8km</title></polyline><polyline fill="none" points="76.85758160869591,129.75 75.27906784741208,130.85236373203225 74.7284235120751,133.0162555553834 76.93100085342303,133.66950400237693 77.00442009838298,136.52745551711996 79.57409366290085,137.0582160699705 79.0234493277967,139.1812524192501 77.26138745457865,141.38593408596353 73.44358672993258,141.54924343671883 71.75494410167448,143.10067950107623 71.46126712299883,145.26451617429848 69.69920524978079,147.34668943550787 70.5802361862734,149.8371201166592 68.67133582406677,151.63348833439522 68.45107808988541,153.96059172495734 66.76243546162732,153.63398140243953 66.13837188156322,154.04224427090958 65.3674698122777,157.02255270449677 63.09147322643548,158.7372423329216 60.705347773386165,163.06476514739916 62.46740964613855,167.43307413562434 64.7434062322136,169.92340074575623 69.77262449450791,170.25 70.91062278742902,169.92340074575623 71.9384922136087,168.2904011462815 74.5081657783594,167.3514238644275 75.27906784741208,165.67759024791303 77.11454896535724,166.86152194588794 78.61964348191395,167.06564780592453 83.83240985590965,165.5551143886405 84.93369852658361,165.7184155273717 87.90717793721706,164.53448101409595 89.52240132074803,165.18768662342336 91.83510752907023,165.18768662342336 94.29465222661383,164.1670524686342 93.89084638073109,163.2280671323242 92.09207488549873,164.45283025037497 89.85278792190365,164.04457622446353 89.22872434183955,162.5748588599672 88.5679511395283,162.9422886224056 88.67808000650257,161.4725678875402 86.43879304314032,162.98311413414194 87.24640473490581,162.12577765781316 87.0628566229716,161.06431133038132 85.77801984059624,161.6766960360983 84.19950607954524,160.7377058349084 81.73996138153598,160.45192584436154 81.99692873819731,159.71706223132787 79.83106101932935,158.20650572062004 79.13357819477096,156.45098813570803 80.23486686544493,156.20603168389061 81.4829940253403,154.45050679252017 79.79435139708221,156.04272731338278 77.26138745457865,156.45098813570803 75.42590633709915,158.98219749468262 74.7284235120751,161.18678833390004 72.23216919205151,162.12577765781316 71.2042997663375,163.79962364243693 67.12953168503009,164.73860786229488 65.11050245561637,163.8812745169853 65.14721207809635,165.14686129879556 67.3130797969643,165.8817166108347 68.85488393576816,165.63676496502012 72.92965201707557,164.20787787646987 74.36132728867233,162.41155665318365 77.40822594403289,161.35009095672285 81.5564132698346,162.61568440304836 83.4286040100269,162.20742881667684 84.93369852658361,160.9010086102644 84.93369852658361,159.39045582039398 79.50067441817373,156.5326402586361 80.89564006752335,156.57346631481778 81.99692873819731,155.51198772582575 82.76783080771565,156.49181419884553 87.17298549017869,157.10420473030536 89.44898207602091,158.45146115293028 91.06420545955189,161.2276139948517 90.18317452305928,158.61476470518392 86.21853530895896,155.63446614413988 86.47550266538747,153.2665445243765 88.78820887370966,151.7151412756939 89.74265905492939,150.00042659565224 88.71478962898254,144.36632100204588 86.54892191011459,142.6924073380651 82.29060571710579,140.89600570080802 82.14376722788438,139.058769807918 79.72093215235509,138.03808016586117 79.57409366290085,136.89490519312676 78.83990121586248,136.56828327281983 77.9588702796027,137.01738835591823 77.04112972063012,136.40497222941485 77.51835481123999,134.5677191670984 77.00442009838298,133.58784799513523 74.98539086873643,133.17956775042694" stroke="#4dd2ff" stroke-linecap="round" stroke-linejoin="round" stroke-width="0.5"><title>2021-01-31 6.2km</title></polyline><polyline fill="none" points="118.36737862369046,141.62889214034658 119.0650939210318,142.73319085073308 119.14559953229036,140.52458995833877 119.9506556445267,141.18120248496416 120.64837094186805,142.0765812250611 120.43368931196164,143.38979924906744 122.15114235132933,143.86733185881167 122.01696633268148,145.74761019967264 122.68784642615356,146.22513960427023 123.65391376102343,145.98637498309836 123.94910100195557,146.4340585146856 123.57340814964846,147.7472602497146 122.39265918498859,149.29921960778302 119.8433148295153,149.3887555153051 118.44788423494902,150.34380377695197 117.96485056763049,152.28373756547808 116.73043119546492,153.8356768838421 117.29397047415841,155.6562123465119 115.89853987947572,157.0589135637856 115.73752865707502,158.76005433450337 114.7446261185687,158.3720755854738 114.26159245125018,158.61083178943954 113.53704195015598,161.05807352549164 111.60490728076547,162.72935076980502 110.34365270507988,164.69906017385074 110.18264148256276,165.5048472021881 111.65857768815476,168.93688236782327 113.26868991274387,170.16046940817614 114.5299444886623,169.08610052769654 114.31526285875589,167.80282228215947 114.85196693358012,167.26563464835635 119.03825871727895,165.8928180752846 119.896985237021,164.72890417082817 122.25848316634074,163.80373908625916 125.53237802279182,164.72890417082817 127.73286472959444,163.8634272297495 128.8062728792429,164.04249159930623 127.78653513710015,163.7738950107596 127.59868871094659,162.22199958958663 122.74151683354285,160.0135212110181 121.05089899792802,162.01309006710653 120.38001890433952,163.8335831592558 118.82357708725613,164.37077603998478 117.83067454898264,165.74359855940565 115.87170467572287,165.6242229010677 114.6372853036737,164.96765605534893 113.8053939875681,165.17656382112182 113.37603072775528,165.86297417723108 112.22211696684826,165.17656382112182 112.03427054057829,164.01264754406293 110.61200474237558,164.69906017385074 110.3704879085999,165.47500327113084 111.44389605836477,168.4295401503332 113.02717307896819,170.0709387936222 117.58915771532338,170.25 118.47471943881828,168.8473514415673 120.38001890433952,168.39969646761892 120.83621736802161,167.0865719212161 122.20481275883503,167.95204092364293 123.30505611223634,168.10125950159272 130.3627146963263,166.13156916893786 131.57029886473902,166.7881338399602 133.31458710785955,166.6389147042937 134.60267688753083,166.07188141075312 134.81735851743724,165.59437898016768 132.16067334695254,164.93781207856955 132.50953099573962,164.01264754406293 132.2948493657168,162.58012991052237 128.88677849050146,159.62554384610849 129.10146012040786,157.89456269089715 130.73840754874982,156.76046696523554 131.3556172348326,155.2085405664111 130.60423152998555,151.6569908974634 129.28930654667784,150.52287503698608 125.90807087521534,148.9709210844594 125.80073006020393,147.62787847654545 123.94910100195557,146.7026683598233 123.89543059456628,145.9565293940832 122.92936325981282,146.1654484642786 122.23164796258789,145.83714701241115 122.41949438874144,144.22548089007614 121.99013112881221,143.53902825940168 120.62153573799878,143.41964505624492 120.62153573799878,141.80796784273116 119.78964442200959,142.67349911725614 117.88434495637193,142.43473208215437 114.12741643248592,140.5544360089698 113.85906439519022,139.77843787017628 112.43679859675467,139.92766841457342 110.2094766861992,138.70397607874474 110.69251035363413,137.15196991115226 110.42415831622202,136.40581065890728 112.78565624542534,130.82448918139562 112.75882104167249,130.19770422499278 110.77301596477628,129.75" stroke="#4dd2ff" stroke-linecap="round" stroke-linejoin="round" stroke-width="0.5"><title>2021-02-04 6.7km</title></polyline><polyline fill="none" points="168.35385912144557,133.59992664016318 171.4000592303928,133.65125882969005 170.9846683065407,136.93650988530135 168.72309549851343,139.65709489490837 164.29225897602737,139.60576321551343 162.0306861680001,141.45370092132362 161.2460588675458,144.73890955519164 159.35372243612073,146.99748013023054 160.13834973680787,150.23132784751942 157.8306223815307,152.64386963506695 157.69215874024667,155.46704460319597 155.06134955515154,155.36438392620767 153.7690222361125,159.4707973964978 150.39974029758014,162.29394047119422 148.87664024322294,165.32238838018384 151.5074494278524,164.80909319245256 151.3689857868012,166.65695382782724 153.03054948267527,167.52955271926476 153.5844040478114,169.32607588160317 156.35367687419057,170.25 163.23070439277217,168.04284559644293 165.81535903085023,165.32238838018384 169.09233187511563,164.3984567283769 174.21548660378903,165.98967147234362 176.10782303498127,165.68169475207105 178.32324129599147,163.7311718792189 178.18477765494026,161.88330229802523 171.58467741892673,158.13621607929235 173.33855020883493,158.29020638158545 174.90780481044203,156.54498065682128 175.1847320930101,158.34153647377389 176.5232139590662,157.98222573753446 177.72323218383826,158.70084699627478 181.04635957535356,158.80350710626226 183.90794149576686,160.5487263086834 186.1233597570099,163.98781998542836 185.56950519164093,161.57532348512905 179.98480499186553,157.10961306054378 180.35404136870056,153.7731412051362 183.26177783636376,152.13056367851095 184.23102332558483,149.87201228906633 183.35408693063073,143.66095244092867 180.3078868216835,141.19704324461054 175.04626845172606,138.630460481334 174.76934116892517,136.73118221777258 171.76929560722783,135.24255454033846 171.53852287167683,133.54859444632893 170.61543192947283,133.34326562739443 169.96926827006973,134.06191618845332 168.21539548039436,133.24060119170463 168.90771368681453,131.0846440133755 168.53847730974667,129.75" stroke="#4dd2ff" stroke-linecap="round" stroke-linejoin="round" stroke-width="0.5"><title>2021-02-06 3.5km</title></polyline><polyline fill="none" points="33.77140992542263,178.5 34.90155208122451,179.72204115489149 34.90155208122451,180.769502109295 33.143553172121756,183.70237857749453 30.443769132951275,185.41321351725492 29.972876567975618,187.3335299657192 31.8250539903529,187.68267744686455 32.2331608798122,188.59045950934524 31.919232503161766,190.19653055397794 32.64126776938792,190.75516248948406 33.488874386413954,190.3711031154089 34.05394546431489,190.65041905947146 33.77140992542263,192.22156770748552 32.2331608798122,194.45607988309348 29.533376840758137,194.5259081928525 27.775377931655385,195.60824547652737 27.05334266531281,197.87765310768737 25.79762915871106,199.37894665371277 26.20573604828678,201.6483334643708 24.730272678192705,203.42892049704096 24.636094165151007,205.13967332130414 22.84670241829008,205.10476006945828 21.873524450697005,208.03746288031107 19.42488311289344,210.2020634379587 18.13777676888276,213.30929269999615 19.42488311289344,216.7656212510483 20.83756080782041,218.2668458117114 22.34441701567266,218.8603516840376 25.70345064578578,219.0 26.959164152271114,218.47631857040687 27.80677076918073,217.07983149657957 30.004269405733794,216.5561476207513 30.66351899667643,215.1247416229162 32.264553717453964,216.31176158363814 33.300517360446975,216.38158618059242 41.33708380232565,214.14719319922733 43.157868386944756,214.8454423105286 45.229795672697946,214.74070501947426 46.86222323111724,213.58859305619262 46.642473367624916,212.9601669878466 43.691546627203934,212.5761283620377 44.06826067925431,211.10979576333193 43.56597527663689,209.5387193171482 39.79883475671522,206.2568958120828 40.04997745831497,204.3017544602917 42.02772623102646,202.90521922940388 42.6869758219691,201.36902499457938 41.9963333933847,197.14446124329697 40.14415597112384,195.57333141504205 36.753729503485374,194.17676652551745 36.188658425584435,192.7103682840243 35.65498018532526,192.57071103577618 35.93751572421752,192.29139639690402 34.36787384096533,191.6280233685684 34.02255262667313,190.4060176188068 32.51569641882088,190.6155045767955 31.982018178561702,190.19653055397794 32.39012506813742,188.4158861915348 31.919232503161766,187.57793323369697 29.972876567975618,187.47318899375387 30.443769132951275,187.0192969791242 30.380983457667753,185.69253283113358 31.22859007457737,184.749829386099" stroke="#4dd2ff" stroke-linecap="round" stroke-linejoin="round" stroke-width="0.5"><title>2021-02-06 4.1km</title></polyline><polyline fill="none" points="79.93524169712327,178.5 79.90298684011213,180.00671261374373 78.54828284983523,182.44614068383817 75.45181658596266,184.7420601103513 75.51632629986852,186.1052563628764 75.06475830276031,186.57161196522065 77.03230457461905,186.85859977215296 77.25808857323136,189.72846711357124 79.32239941554144,189.76434033186524 78.80632170510944,191.95260088713258 77.29034342989326,193.8538672447321 74.51642573531717,193.7103757428995 72.83917317574378,194.8583063929109 71.96829203900415,197.5128840690595 70.71035261941142,198.6966768418206 71.25868518697098,201.24361367800157 69.64594234130345,203.03722195062437 69.64594234130345,204.7949506669247 67.87192521104589,204.61559092905372 66.67849550500978,207.8440545569756 64.35614580719266,209.85286391421687 62.71114810463041,212.97367378458148 64.35614580719266,216.84775050811004 65.45281094231177,218.21084312631865 67.35584750038106,218.92825852695387 70.54907833482139,219.0 71.90378232533112,218.67716327536618 72.74240860505961,217.17058863097918 75.06475830276031,216.6325249556685 75.70985544123687,215.09007195394952 78.32249885122292,216.4172992935637 84.28964738047216,215.01832981675398 86.8700359336799,213.90632513226592 88.28924963786267,214.65961894814973 90.35356048040558,214.5520056281821 92.288851895486,213.54761331921327 91.9340484692948,212.7584462580853 89.22464048850816,212.5432186218095 88.99885649012867,211.9334063900751 89.54718905757181,211.18010771175614 88.99885649012867,209.17130466757226 85.1605285173282,206.12221036010305 85.32180280180182,204.0775112581905 87.35385878745001,202.71437302371487 88.22473992418963,200.84901883578277 87.4828782150289,196.65194178628735 85.32180280180182,194.89417917540413 81.80602339806501,193.49513839857536 81.67700397048611,191.91672785475384 79.45141884335317,190.8405354647839 79.16112513106782,189.65672066778643 78.06445999594871,189.94370637793327 77.16132400243077,189.51322773954598 77.48387257149443,187.6478152355412 77.00004971784074,186.78685283876257 75.3873068720568,186.42811798860203" stroke="#4dd2ff" stroke-linecap="round" stroke-linejoin="round" stroke-width="0.5"><title>2021-02-07 4.0km</title></polyline><polyline fill="none" points="119.58057350642048,180.46526516554877 121.73172987019643,180.89249570702668 122.2695189609658,181.96057047243812 121.73172987019643,183.84037654969143 122.2311054544989,184.48121792450547 124.38226181804202,184.22488147264812 124.5359158439096,185.93378868399304 122.2311054544989,189.00980703011737 118.04403324681334,189.2234187165741 116.3154254546389,191.01775330081 116.08494441583753,192.89752552233404 114.2410961042624,195.63172712022788 115.00936623406596,198.32319230004214 113.20393142895773,199.98933019320248 113.08869090955704,202.08267510688165 110.93753454578109,202.1681175713602 109.70830233814195,205.6285251841473 106.94252987066284,208.02089183643693 104.94502753322013,211.5667000504618 106.78887584479526,216.4795255441568 109.63147532520816,218.78640095956507 114.81729870149866,219.0 116.58432000014,216.86400551485713 119.31167896115221,216.09504527968238 120.00312207802199,214.64256162833772 123.72923220763914,215.83872494014213 133.7167438955512,213.06191288898117 135.40693818125874,213.95903845873545 138.24953766167164,213.745437277772 140.05497246677987,212.20750609698007 139.55559688224457,211.6948613251734 136.36727584339678,211.43853874329943 136.3288623369299,207.97817110316828 131.52717402554117,203.74880054575624 131.75765506434254,201.31369227348478 134.10087896045297,199.64755876763957 135.0996301290579,197.3833172073355 134.21611947985366,192.5984713206417 131.75765506434254,190.41964248401928 127.64740987005644,188.71075051647495 127.07120727258734,186.53190483595245 124.8432238958776,185.67745297244983 124.42067532450892,184.31032697105547 122.0006244154647,184.0967131976504 121.9622109089978,181.06338782195235 119.23485194821842,180.63615742567345 119.88788155838847,178.5" stroke="#4dd2ff" stroke-linecap="round" stroke-linejoin="round" stroke-width="0.5"><title>2021-02-11 3.6km</title></polyline><polyline fill="none" points="167.51886836951599,178.5 166.53771315631457,179.21350023214472 166.72639685100876,181.35399474552833 166.31129272235557,181.52187627588864 168.61323379981332,181.9835501901107 168.72644401690923,185.21525550968363 171.14159531123005,185.46707581562805 170.61328096571378,187.77542263796204 168.91512771160342,190.04178902466083 165.25466403109021,190.04178902466083 163.40556382131763,191.42678558727494 162.91498621436767,193.77707389948773 161.179096221691,196.04341275442857 161.85835752333514,198.68746161242598 159.97152057429776,200.78590301578515 159.93378383549862,202.84236694406718 159.3299960119184,203.34598945852485 157.5941060190089,202.96827262089937 156.65068754460663,206.03196753258817 154.27327298908494,208.13037774339318 152.0468053894583,211.90749366595992 153.66948516550474,216.73376643954543 154.91479755169712,218.28655722227995 156.3487936325837,219.0 157.7827897137031,217.74098263852648 157.48089580214582,215.93638549291063 158.6129979712423,214.9291656157875 164.235772078624,213.0825905087404 165.0659803361632,211.73962246024166 166.4245029394515,210.9002655763761 169.06607466749847,210.1868111040967 173.59448334458284,211.52978337288368 174.72658551414497,211.27797635056777 176.3115285509266,210.1448431618337 176.65115920174867,208.63399486802518 170.95291161653586,205.31850603074417 171.33027900615707,204.8568539219268 172.53785465331748,205.4024427315162 173.9341139954049,204.10142226776225 174.12279769033194,205.2345693158568 178.91536354017444,205.82212602140498 181.25504135689698,207.24904654038255 182.9531946105417,210.10287521599093 182.2361965700984,207.83660085042357 177.85873484890908,204.43716981212492 178.3493124556262,201.6672457474633 180.65125353308395,200.11440273636254 181.40598831279203,198.2677722623339 180.53804331622086,193.18950286964537 178.3493124556262,191.42678558727494 174.08506095129997,189.4961832521367 173.82090377854183,187.6075432327052 171.2925422671251,186.51632570830407 170.80196466040798,185.089345308661 168.9528644506354,185.17328544627526 168.50002358295023,181.89960951067042 166.16034576646052,181.56384664954385 166.5754498951137,181.10217234297306" stroke="#4dd2ff" stroke-linecap="round" stroke-linejoin="round" stroke-width="0.5"><title>2021-02-13 4.0km</title></polyline><polyline fill="none" points="23.14351447788067,264.8274648260849 24.471904397709295,264.28149421251146 24.500782439485192,265.69459300366 25.280489566270262,266.01575108323595 26.060196693171747,267.3003806742199 27.186440320685506,267.75 31.749170914874412,266.2726773505565 32.644390208646655,265.020160148415 35.15677983954083,264.05668255433557 37.7558035957627,264.9559283851704 39.603998266742565,264.9880442681606 41.27892468729988,263.67129082934116 41.1922905620886,262.51511329744244 37.00497451063711,260.6523753932852 36.57180388458073,259.7210029999842 34.9546335474588,260.52391037205234 32.933170625939965,264.1530304242624 31.229366163606755,264.731117127958 30.42078099504579,266.047866876208 28.543708282406442,266.047866876208 26.89765990350861,265.30920294794487 25.569269983679987,265.98363528752816 25.915806484525092,266.4974876912311 27.38858661300037,266.8186450890207 30.363024911726825,266.14421423873864 31.31600028881803,264.6026534924167 33.30858516856097,263.9603346599615 33.857267961488105,262.1939522444736 35.3300480900798,260.17063133840566 36.22526738361921,259.8815846108482 37.95794988772832,260.4275615774095 38.99755939026363,259.4319559286814 39.34409589122515,260.2669801984739 42.98272914963309,260.6844916417904 44.62877752853092,261.6800939925015 46.1015576570062,264.1530304242624 45.437362697091885,262.0976038755034 42.11638789763674,259.52830497702234 42.57843656546902,257.47285328779253 44.31111906946171,256.2203069354582 44.859801862505265,254.8392894808494 44.224484944250435,250.95314352752757 42.86721698276233,249.7326927545364 39.1419495990267,248.19106509390986 39.08419351559132,246.74578345293412 37.409267094917595,246.00708181370283 36.88946234364994,244.78661507353536 35.84985284123104,245.0435557673627 35.070145714329556,244.65814466113807 35.3300480900798,242.8916720637062 34.550340963178314,241.99237375240773 33.39521929377224,242.02449158608215 33.45297537720762,240.2258886981872 32.846536500845104,239.6477645240957 31.547024622675963,239.19811177728116 31.57590266445186,241.41425227973377 26.52224536088761,239.0696394657425 26.204586901701987,238.26668652900844 24.38527027249802,238.13821390090743 22.24829518410843,236.9819582827622 21.815124558168463,235.95417254182394 24.847318940330297,227.9566192685743 22.334929309319705,227.25 18.898442342877388,227.34635725081898" stroke="#4dd2ff" stroke-linecap="round" stroke-linejoin="round" stroke-width="0.5"><title>2021-02-15 4.7km</title></polyline><polyline fill="none" points="75.87755149335135,245.09465898707276 77.01069013297092,245.26651306866552 77.34548109467141,245.982570798893 76.98493698204402,247.21418653725414 77.29397479281761,247.67246101234923 78.76190439402126,247.5578924519359 78.58163233776577,248.90407057726406 77.29397479281761,250.7371555515565 74.61564709933009,250.823081165232 73.45675530890003,251.91147037569317 73.07045804534573,253.48676432610955 71.91156625491567,254.97612638297142 72.37512297101784,256.83781970254495 71.21623118058778,258.0121132788772 71.0617122752592,259.64466096801334 69.59378267393913,259.73058431153186 68.94995390146505,261.8500198566471 66.9927144331159,263.71167522403994 66.27162620797753,265.2582734054886 67.4562711493345,264.85730418775347 67.5077774511883,265.74516395755927 68.02284046914428,266.34661602179403 70.28911774826702,267.005348004197 72.89018598909024,266.4611781981366 73.40524900704622,266.71894295257516 75.05345066462178,265.34419531872845 77.3197279436281,264.65681940005743 81.0796879749978,265.48739845873206 82.57337072724476,264.37041235380457 82.57337072724476,263.3393449728028 78.22108822525479,260.9621498308843 77.16520903829951,261.24855977203697 75.95481094613206,263.05293680750765 75.49125422991347,264.5422566107882 73.8688057231484,265.0864295134379 72.86443283816334,266.5184592716978 70.93294652062468,266.31797547164024 69.98007993737701,265.74516395755927 69.15597910864744,265.85972633821075 68.66666924161837,266.4898187361541 69.10447280691005,267.4349551255582 70.75267446448561,267.75 74.1778435340384,266.5757403355674 74.97619121184107,265.43011721002404 77.29397479281761,264.4849752014561 80.6933907114435,265.4014765819593 82.44460497272667,264.570897311758 83.19144634867553,264.85730418775347 84.041300328332,264.2558494670666 84.3245849882951,264.97186687006615 83.62924991396721,265.77380455631646 85.09717951528728,264.6854600912775 85.01992006250657,265.63060153793776 85.63799568417016,265.17235147042084 86.07579924946185,266.4611781981366 87.6982477561105,266.80486449354794 88.72837379213888,266.2606943640276 88.54810173576698,265.8310857466422 86.71962802193593,265.65924214644474 86.82264062552713,263.82623829558725 86.30757760745473,262.7951692507486 83.42322470678482,260.5611755044374 83.73226251767483,258.7567851349886 85.20019211887848,257.8116244211851 85.86977404227946,256.43684047152055 85.14868581702467,252.8280059331737 83.50048415956553,251.59641070247744 80.8994159187423,250.5080204748665 80.4873655042611,249.04728069977136 78.76190439402126,248.24530323009822 78.71039809228387,247.4719660061819 77.50000000011642,247.64381887586205 77.06219643482473,247.32875521443202 77.3197279436281,245.7820747877413 76.88192437845282,245.09465898707276 75.51700738084037,244.95144718550728 75.72303258802276,243.34747085155686 78.0150630180724,241.94398529906175 79.50874577020295,239.53799647197593 79.48299261927605,238.67871058633318 78.58163233776577,237.6762076181767 76.90767752937973,237.81942251042346 77.6030126035912,236.27269845380215 78.09232247062027,233.3510892050981 78.04081616888288,230.65860335782054 79.53449892101344,229.9711567160848 80.95092222059611,230.7731776618166 81.69776359666139,227.30728773627197 82.77939593442716,227.5364385836292 82.75364278338384,227.25" stroke="#4dd2ff" stroke-linecap="round" stroke-linejoin="round" stroke-width="0.5"><title>2021-02-16 6.0km</title></polyline><polyline fill="none" points="123.01305714156479,233.40761239183485 122.60738405282609,236.1413410511741 122.10625847254414,237.12335424296907 122.58352092991117,237.30914017520263 123.51418272196315,236.93756820025737 124.42098139110021,238.10536434754613 124.32552889955696,238.9015864901594 123.2278252474498,240.7328897160187 120.93696545180865,242.27223774555023 120.67447110032663,243.73195731799933 122.13012159534264,243.9708198713779 122.2255740868859,246.04095434976625 123.80054019636009,246.09403454061248 123.56190896767657,247.52719628455816 122.29716345551424,249.1195905111963 120.00630365987308,249.14613034616923 118.83701063913759,250.12810265651206 118.50292691902723,251.5877855218714 117.38136014388874,253.02092206367524 117.81089635554235,254.77252446487546 116.71319270355161,255.80755763151683 116.59387708920985,257.3468313839985 115.23367908550426,257.21413566960837 114.58937476796564,259.4168772325793 112.82350367540494,260.8499778630503 111.55875816335902,263.3180802075367 112.7280511839781,266.1046239405114 113.56326048448682,267.0865429538535 114.42233290791046,267.5642321690684 117.23818140663207,267.75 118.19270632159896,267.51115562571795 118.81314751622267,266.4496228643402 120.50742924015503,266.05154714910896 121.0324179433519,264.88385545896017 122.34488970122766,265.6269324939349 123.37100398470648,265.7065477856959 129.43223719415255,263.928468103084 130.5060777233448,264.51231627879315 132.08104383281898,264.4327006827225 133.44124183652457,263.6365436062042 133.2741999764694,263.2119256691949 131.03106642654166,262.8138458293106 131.3412870238535,261.96460714237764 130.88788768928498,260.5315116242564 128.09590231324546,258.3553169722145 128.26294417341705,256.57719545569853 129.81404715997633,255.56870412814897 130.41062523180153,254.16211868225946 129.79018403717782,251.16315120994113 128.07203919044696,249.83616526509286 125.63800065754913,248.9338116029685 125.51868504309095,247.71297602925915 123.77667707356159,246.75753616535803 123.70508770493325,246.04095434976625 122.86987840430811,246.25327505904716 122.20171096397098,245.93479394100723 122.17784784117248,244.07698094757507 120.76992359163705,243.8381184753962 121.0562810661504,242.13953562793904 123.0369202644797,240.9186735014082 124.34939202247187,238.74234222396626 124.44484451389872,237.97266045969445 123.53804584487807,237.04373166678124 122.10625847254414,237.0702725277515 122.75056279008277,235.66360378736863 123.2278252474498,230.3288213708147 124.13462391670328,229.90415815860615 125.92435813194606,230.3288213708147 126.64025181811303,227.4092501256091 127.52318736433517,227.25 127.09365115268156,228.01970818807604" stroke="#4dd2ff" stroke-linecap="round" stroke-linejoin="round" stroke-width="0.5"><title>2021-02-17 5.3km</title></polyline><polyline fill="none" points="165.01906891912222,227.25 166.0114413513802,228.1617618079763 166.14088123384863,230.03326827625278 165.57997507648543,230.6571023876313 168.47079911851324,231.56885869556572 168.60023900098167,234.9279481829726 171.05959676764905,234.9279481829726 170.88701025792398,237.5672187661403 168.85911876591854,240.39842259063153 164.8896290366538,240.49439535301644 162.64600440720096,241.9819710839074 161.91251173987985,244.76516676845495 160.01406013011,247.59633451607078 160.66125954245217,250.61943017452722 158.6765146779362,252.5388475926011 158.41763491299935,255.2260210213717 156.217156911036,255.2260210213717 154.8364648311399,259.16078762337565 152.03193404432386,261.5600221015047 150.0471891798079,264.6790116902557 152.11822729930282,263.9112620044034 153.15374635905027,266.45442884246586 157.25267597078346,267.75 163.5089369569905,266.9342703584116 165.19165542908013,264.8229646401014 168.72967888321728,263.4794023477589 173.9072741821874,265.0628861418227 175.33111288934015,264.7749803275219 177.61788414651528,263.2394801735063 177.53159089153633,261.51203751174035 171.2321832778398,258.10512122506043 173.3463680248242,258.0091514547821 174.51132696704008,256.7135579587775 175.24481963459402,258.201090979157 176.0646055568941,257.7692269574036 177.10012461664155,258.4890001436579 180.37926830607466,258.7289243352134 183.7015586225316,261.1761452697101 184.95281081995927,263.43141792103415 183.8741451324895,260.5523448617314 179.0848694811575,257.0014678812586 179.6889222660102,253.93042114254786 181.88940026797354,252.4428768765647 183.1406524651684,249.9956181095331 182.19142666039988,244.23732036491856 179.38689587358385,241.9819710839074 175.0722331246361,240.39842259063153 174.03671406465583,237.4712455064291 171.53420967026614,236.55949872609926 171.2321832778398,234.78398761473363 170.02407770813443,235.11989555030596" stroke="#4dd2ff" stroke-linecap="round" stroke-linejoin="round" stroke-width="0.5"><title>2021-03-06 3.5km</title></polyline></svg>